<?xml version="1.0" ?><!-- Uploaded to: SVG Repo, www.svgrepo.com, Generator: SVG Repo Mixer Tools -->
<svg width="800px" height="800px" viewBox="0 0 64 64" id="icons" xmlns="http://www.w3.org/2000/svg"><defs><style>.cls-1{fill:#231f20;}</style></defs><title/><path class="cls-1" d="M59.74,22l-8-14A2,2,0,0,0,50,7H14a2,2,0,0,0-1.74,1l-8,14A2,2,0,0,0,6,25H9V51a6,6,0,0,0,6,6H49a6,6,0,0,0,6-6V25h3a2,2,0,0,0,1.74-3ZM15.16,11H48.84l5.71,10H9.45ZM51,51a2,2,0,0,1-2,2H15a2,2,0,0,1-2-2V25H51Z"/><path class="cls-1" d="M22,46H42a2,2,0,0,0,2-2V33a2,2,0,0,0-2-2H22a2,2,0,0,0-2,2V44A2,2,0,0,0,22,46Zm2-11H40v7H24Z"/></svg>